<?xml version="1.0" encoding="UTF-8"?>
<!--Generator: Apple Native CoreSVG 360-->
<!DOCTYPE svg
PUBLIC "-//W3C//DTD SVG 1.1//EN"
       "http://www.w3.org/Graphics/SVG/1.1/DTD/svg11.dtd">
<svg version="1.1" xmlns="http://www.w3.org/2000/svg" xmlns:xlink="http://www.w3.org/1999/xlink" viewBox="0 0 116.418 100.872">
 <g>
  <rect height="100.872" opacity="0" width="116.418" x="0" y="0"/>
  <path d="M14.7677 100.872L93.2606 100.872C103.078 100.872 108.028 95.89 108.028 86.2599L108.028 72.2197L100.102 72.2197L100.102 85.8765C100.102 90.586 97.5963 92.946 93.136 92.946L14.8924 92.946C10.3899 92.946 7.92632 90.586 7.92632 85.8765L7.92632 36.1669C7.92632 31.5197 10.3899 29.0974 14.8924 29.0974L93.136 29.0974C97.5963 29.0974 100.102 31.5197 100.102 36.1669L100.102 48.0641L108.028 48.0641L108.028 35.7835C108.028 26.1534 103.078 21.171 93.2606 21.171L39.0693 21.171C38.2181 21.171 38.0935 20.4339 39.0069 20.1953L76.7222 9.76481C81.3905 8.38255 83.8666 10.112 83.8666 14.3844L83.8666 24.5285L91.7929 23.8557L91.7929 15.0878C91.7929 3.55437 83.9103-0.010551 73.1904 3.07103L10.6672 21.2956C3.34235 23.4638 0 27.8959 0 35.7835L0 86.2599C0 95.9628 5.01302 100.872 14.7677 100.872ZM88.9334 65.8164C91.6346 65.8164 93.8681 63.6347 93.8681 60.9335C93.8681 58.1806 91.6346 55.9989 88.9334 55.9989C86.1699 55.9989 83.9883 58.1806 83.9883 60.9335C83.9883 63.6347 86.1699 65.8164 88.9334 65.8164ZM88.4355 76.2911L106.517 76.2911C112.62 76.2911 116.418 71.976 116.418 66.3791L116.418 55.5291C116.418 49.9322 112.62 45.6794 106.517 45.6794L88.4355 45.6794C78.6275 45.6794 72.0137 50.7377 72.0137 60.9853C72.0137 71.1811 78.6275 76.2911 88.4355 76.2911ZM88.9424 69.7516C82.1211 69.7516 78.8637 66.4042 78.8637 60.9853C78.8637 55.5145 82.1211 52.2084 88.9424 52.2084L104.77 52.2084C108.145 52.2084 109.889 54.0881 109.889 57.2762L109.889 64.6838C109.889 67.8719 108.145 69.7516 104.77 69.7516Z" fill="white" fill-opacity="0.85"/>
 </g>
</svg>
